<?xml version="1.0" encoding="utf-8" standalone="no"?>
<!DOCTYPE svg PUBLIC "-//W3C//DTD SVG 1.1//EN"
  "http://www.w3.org/Graphics/SVG/1.1/DTD/svg11.dtd">
<svg xmlns:xlink="http://www.w3.org/1999/xlink" width="712.631875pt" height="389.010938pt" viewBox="0 0 712.631875 389.010938" xmlns="http://www.w3.org/2000/svg" version="1.1">
 <metadata>
  <rdf:RDF xmlns:dc="http://purl.org/dc/elements/1.1/" xmlns:cc="http://creativecommons.org/ns#" xmlns:rdf="http://www.w3.org/1999/02/22-rdf-syntax-ns#">
   <cc:Work>
    <dc:type rdf:resource="http://purl.org/dc/dcmitype/StillImage"/>
    <dc:date>2026-02-28T20:16:44.087599</dc:date>
    <dc:format>image/svg+xml</dc:format>
    <dc:creator>
     <cc:Agent>
      <dc:title>Matplotlib v3.10.8, https://matplotlib.org/</dc:title>
     </cc:Agent>
    </dc:creator>
   </cc:Work>
  </rdf:RDF>
 </metadata>
 <style>
@media (prefers-color-scheme: dark) {
  g[id^="text_"] { fill: #c9d1d9 !important; }
  use[style*="stroke: #000000"] { stroke: #c9d1d9 !important; }
  path[style*="stroke: #000000"] { stroke: #c9d1d9 !important; }
  g[id^="legend_"] > g:first-child path { fill: #21262d !important; stroke: #444c56 !important; }
}
</style>
<defs>
  <style type="text/css">*{stroke-linejoin: round; stroke-linecap: butt}</style>
 </defs>
 <g id="figure_1">
  <g id="patch_1">
   <path d="M 0 389.010938 
L 712.631875 389.010938 
L 712.631875 0 
L 0 0 
L 0 389.010938 
z
" style="fill: none"/>
  </g>
  <g id="axes_1">
   <g id="patch_2">
    <path d="M 50.836875 344.68 
L 705.431875 344.68 
L 705.431875 7.2 
L 50.836875 7.2 
L 50.836875 344.68 
z
" style="fill: none"/>
   </g>
   <g id="FillBetweenPolyCollection_1">
    <defs>
     <path id="m541e5a18c9" d="M 113.65396 -137.624183 
L 113.649134 -137.624183 
L 113.64987 -139.842197 
L 113.650246 -142.060212 
L 113.649324 -144.278227 
L 113.649443 -146.496241 
L 113.650732 -148.714256 
L 113.65142 -150.932271 
L 113.651539 -153.150285 
L 113.651543 -155.3683 
L 113.651478 -157.586314 
L 113.650977 -159.804329 
L 113.649504 -162.022344 
L 113.647674 -164.240358 
L 113.64633 -166.458373 
L 113.646883 -168.676388 
L 113.649332 -170.894402 
L 113.650037 -173.112417 
L 113.647434 -175.330432 
L 113.643292 -177.548446 
L 113.641863 -179.766461 
L 113.644514 -181.984475 
L 113.646384 -184.20249 
L 113.644902 -186.420505 
L 113.64069 -188.638519 
L 113.636358 -190.856534 
L 113.635131 -193.074549 
L 113.6327 -195.292563 
L 113.628967 -197.510578 
L 113.625653 -199.728592 
L 113.617848 -201.946607 
L 113.612919 -204.164622 
L 113.620287 -206.382636 
L 113.629925 -208.600651 
L 113.625692 -210.818666 
L 113.611716 -213.03668 
L 113.601183 -215.254695 
L 113.58915 -217.47271 
L 113.575833 -219.690724 
L 113.565786 -221.908739 
L 113.56468 -224.126753 
L 113.57104 -226.344768 
L 113.574044 -228.562783 
L 113.570819 -230.780797 
L 113.562116 -232.998812 
L 113.54964 -235.216827 
L 113.530553 -237.434841 
L 113.511853 -239.652856 
L 113.499726 -241.870871 
L 113.489802 -244.088885 
L 113.469034 -246.3069 
L 113.445482 -248.524914 
L 113.437157 -250.742929 
L 113.425374 -252.960944 
L 113.395392 -255.178958 
L 113.369603 -257.396973 
L 113.360594 -259.614988 
L 113.34414 -261.833002 
L 113.306106 -264.051017 
L 113.266877 -266.269032 
L 113.237313 -268.487046 
L 113.196347 -270.705061 
L 113.13698 -272.923075 
L 113.073757 -275.14109 
L 112.99389 -277.359105 
L 112.914363 -279.577119 
L 112.865986 -281.795134 
L 112.810558 -284.013149 
L 112.729638 -286.231163 
L 112.634732 -288.449178 
L 112.52793 -290.667193 
L 112.454645 -292.885207 
L 112.415285 -295.103222 
L 112.319527 -297.321236 
L 112.106356 -299.539251 
L 111.838306 -301.757266 
L 111.599869 -303.97528 
L 111.364736 -306.193295 
L 111.084618 -308.41131 
L 110.811914 -310.629324 
L 110.556453 -312.847339 
L 110.226917 -315.065353 
L 109.807593 -317.283368 
L 109.372426 -319.501383 
L 108.912239 -321.719397 
L 108.30166 -323.937412 
L 107.509798 -326.155427 
L 106.617359 -328.373441 
L 105.722152 -330.591456 
L 104.720118 -332.809471 
L 103.414267 -335.027485 
L 101.806674 -337.2455 
L 99.845677 -339.463514 
L 97.397406 -341.681529 
L 94.334426 -343.899544 
L 90.6901 -346.117558 
L 86.569769 -348.335573 
L 82.322971 -350.553588 
L 80.591193 -352.771602 
L 86.623904 -354.989617 
L 99.638373 -357.207632 
L 127.66472 -357.207632 
L 127.66472 -357.207632 
L 140.67919 -354.989617 
L 146.7119 -352.771602 
L 144.980123 -350.553588 
L 140.733324 -348.335573 
L 136.612993 -346.117558 
L 132.968668 -343.899544 
L 129.905687 -341.681529 
L 127.457416 -339.463514 
L 125.49642 -337.2455 
L 123.888826 -335.027485 
L 122.582976 -332.809471 
L 121.580941 -330.591456 
L 120.685734 -328.373441 
L 119.793295 -326.155427 
L 119.001434 -323.937412 
L 118.390854 -321.719397 
L 117.930667 -319.501383 
L 117.495501 -317.283368 
L 117.076176 -315.065353 
L 116.74664 -312.847339 
L 116.49118 -310.629324 
L 116.218475 -308.41131 
L 115.938357 -306.193295 
L 115.703224 -303.97528 
L 115.464788 -301.757266 
L 115.196738 -299.539251 
L 114.983567 -297.321236 
L 114.887808 -295.103222 
L 114.848448 -292.885207 
L 114.775163 -290.667193 
L 114.668361 -288.449178 
L 114.573456 -286.231163 
L 114.492535 -284.013149 
L 114.437108 -281.795134 
L 114.38873 -279.577119 
L 114.309203 -277.359105 
L 114.229336 -275.14109 
L 114.166113 -272.923075 
L 114.106746 -270.705061 
L 114.06578 -268.487046 
L 114.036216 -266.269032 
L 113.996988 -264.051017 
L 113.958954 -261.833002 
L 113.942499 -259.614988 
L 113.933491 -257.396973 
L 113.907702 -255.178958 
L 113.877719 -252.960944 
L 113.865936 -250.742929 
L 113.857611 -248.524914 
L 113.834059 -246.3069 
L 113.813291 -244.088885 
L 113.803367 -241.870871 
L 113.791241 -239.652856 
L 113.77254 -237.434841 
L 113.753454 -235.216827 
L 113.740977 -232.998812 
L 113.732275 -230.780797 
L 113.72905 -228.562783 
L 113.732053 -226.344768 
L 113.738414 -224.126753 
L 113.737308 -221.908739 
L 113.72726 -219.690724 
L 113.713944 -217.47271 
L 113.70191 -215.254695 
L 113.691378 -213.03668 
L 113.677401 -210.818666 
L 113.673169 -208.600651 
L 113.682806 -206.382636 
L 113.690174 -204.164622 
L 113.685245 -201.946607 
L 113.677441 -199.728592 
L 113.674126 -197.510578 
L 113.670393 -195.292563 
L 113.667963 -193.074549 
L 113.666736 -190.856534 
L 113.662404 -188.638519 
L 113.658191 -186.420505 
L 113.656709 -184.20249 
L 113.65858 -181.984475 
L 113.661231 -179.766461 
L 113.659801 -177.548446 
L 113.655659 -175.330432 
L 113.653056 -173.112417 
L 113.653762 -170.894402 
L 113.656211 -168.676388 
L 113.656763 -166.458373 
L 113.65542 -164.240358 
L 113.65359 -162.022344 
L 113.652116 -159.804329 
L 113.651616 -157.586314 
L 113.65155 -155.3683 
L 113.651555 -153.150285 
L 113.651674 -150.932271 
L 113.652361 -148.714256 
L 113.653651 -146.496241 
L 113.65377 -144.278227 
L 113.652847 -142.060212 
L 113.653224 -139.842197 
L 113.65396 -137.624183 
z
" style="stroke: #4caf50; stroke-opacity: 0.7"/>
    </defs>
    <g clip-path="url(#p8c9c852c70)">
     <use xlink:href="#m541e5a18c9" x="0" y="389.010938" style="fill: #4caf50; fill-opacity: 0.7; stroke: #4caf50; stroke-opacity: 0.7"/>
    </g>
   </g>
   <g id="FillBetweenPolyCollection_2">
    <defs>
     <path id="m4c94f6e4fb" d="M 245.905516 -81.357669 
L 245.880406 -81.357669 
L 245.877008 -84.138662 
L 245.872689 -86.919655 
L 245.865477 -89.700647 
L 245.853821 -92.48164 
L 245.836823 -95.262632 
L 245.813196 -98.043625 
L 245.780781 -100.824617 
L 245.737961 -103.60561 
L 245.685439 -106.386602 
L 245.625075 -109.167595 
L 245.555863 -111.948588 
L 245.473375 -114.72958 
L 245.376426 -117.510573 
L 245.272203 -120.291565 
L 245.169092 -123.072558 
L 245.064273 -125.85355 
L 244.943777 -128.634543 
L 244.796201 -131.415535 
L 244.622852 -134.196528 
L 244.434124 -136.97752 
L 244.239596 -139.758513 
L 244.04219 -142.539506 
L 243.837609 -145.320498 
L 243.615844 -148.101491 
L 243.363866 -150.882483 
L 243.069829 -153.663476 
L 242.72844 -156.444468 
L 242.346556 -159.225461 
L 241.944076 -162.006453 
L 241.543901 -164.787446 
L 241.157667 -167.568439 
L 240.784994 -170.349431 
L 240.426748 -173.130424 
L 240.086571 -175.911416 
L 239.747846 -178.692409 
L 239.358105 -181.473401 
L 238.858583 -184.254394 
L 238.236866 -187.035386 
L 237.539514 -189.816379 
L 236.83139 -192.597372 
L 236.15605 -195.378364 
L 235.532247 -198.159357 
L 234.960753 -200.940349 
L 234.420002 -203.721342 
L 233.873192 -206.502334 
L 233.298956 -209.283327 
L 232.710732 -212.064319 
L 232.134221 -214.845312 
L 231.566589 -217.626305 
L 230.967457 -220.407297 
L 230.293796 -223.18829 
L 229.538551 -225.969282 
L 228.738068 -228.750275 
L 227.956406 -231.531267 
L 227.258658 -234.31226 
L 226.671895 -237.093252 
L 226.157671 -239.874245 
L 225.6342 -242.655238 
L 225.039795 -245.43623 
L 224.378 -248.217223 
L 223.69849 -250.998215 
L 223.036737 -253.779208 
L 222.382835 -256.5602 
L 221.712569 -259.341193 
L 221.030179 -262.122185 
L 220.359318 -264.903178 
L 219.702529 -267.684171 
L 219.035177 -270.465163 
L 218.337011 -273.246156 
L 217.612584 -276.027148 
L 216.885717 -278.808141 
L 216.189462 -281.589133 
L 215.55974 -284.370126 
L 215.02784 -287.151118 
L 214.613683 -289.932111 
L 214.317277 -292.713103 
L 214.104037 -295.494096 
L 213.90542 -298.275089 
L 213.660348 -301.056081 
L 213.370669 -303.837074 
L 213.104781 -306.618066 
L 212.930433 -309.399059 
L 212.851554 -312.180051 
L 212.832607 -314.961044 
L 212.876684 -317.742036 
L 213.04843 -320.523029 
L 213.420414 -323.304022 
L 214.027043 -326.085014 
L 214.879452 -328.866007 
L 216.002952 -331.646999 
L 217.447073 -334.427992 
L 219.277372 -337.208984 
L 221.574184 -339.989977 
L 224.417785 -342.770969 
L 227.827468 -345.551962 
L 231.673639 -348.332955 
L 235.63201 -351.113947 
L 239.247844 -353.89494 
L 242.110921 -356.675932 
L 249.675 -356.675932 
L 249.675 -356.675932 
L 252.538078 -353.89494 
L 256.153912 -351.113947 
L 260.112283 -348.332955 
L 263.958454 -345.551962 
L 267.368136 -342.770969 
L 270.211738 -339.989977 
L 272.508549 -337.208984 
L 274.338849 -334.427992 
L 275.78297 -331.646999 
L 276.90647 -328.866007 
L 277.758878 -326.085014 
L 278.365507 -323.304022 
L 278.737491 -320.523029 
L 278.909238 -317.742036 
L 278.953314 -314.961044 
L 278.934368 -312.180051 
L 278.855489 -309.399059 
L 278.681141 -306.618066 
L 278.415252 -303.837074 
L 278.125574 -301.056081 
L 277.880502 -298.275089 
L 277.681885 -295.494096 
L 277.468645 -292.713103 
L 277.172239 -289.932111 
L 276.758081 -287.151118 
L 276.226182 -284.370126 
L 275.59646 -281.589133 
L 274.900205 -278.808141 
L 274.173338 -276.027148 
L 273.448911 -273.246156 
L 272.750745 -270.465163 
L 272.083392 -267.684171 
L 271.426603 -264.903178 
L 270.755743 -262.122185 
L 270.073353 -259.341193 
L 269.403087 -256.5602 
L 268.749185 -253.779208 
L 268.087432 -250.998215 
L 267.407921 -248.217223 
L 266.746127 -245.43623 
L 266.151722 -242.655238 
L 265.628251 -239.874245 
L 265.114026 -237.093252 
L 264.527264 -234.31226 
L 263.829516 -231.531267 
L 263.047854 -228.750275 
L 262.247371 -225.969282 
L 261.492126 -223.18829 
L 260.818464 -220.407297 
L 260.219333 -217.626305 
L 259.651701 -214.845312 
L 259.07519 -212.064319 
L 258.486966 -209.283327 
L 257.912729 -206.502334 
L 257.36592 -203.721342 
L 256.825168 -200.940349 
L 256.253674 -198.159357 
L 255.629872 -195.378364 
L 254.954532 -192.597372 
L 254.246407 -189.816379 
L 253.549055 -187.035386 
L 252.927339 -184.254394 
L 252.427817 -181.473401 
L 252.038075 -178.692409 
L 251.69935 -175.911416 
L 251.359174 -173.130424 
L 251.000928 -170.349431 
L 250.628255 -167.568439 
L 250.24202 -164.787446 
L 249.841845 -162.006453 
L 249.439366 -159.225461 
L 249.057482 -156.444468 
L 248.716093 -153.663476 
L 248.422056 -150.882483 
L 248.170077 -148.101491 
L 247.948313 -145.320498 
L 247.743732 -142.539506 
L 247.546325 -139.758513 
L 247.351797 -136.97752 
L 247.163069 -134.196528 
L 246.989721 -131.415535 
L 246.842144 -128.634543 
L 246.721649 -125.85355 
L 246.61683 -123.072558 
L 246.513719 -120.291565 
L 246.409496 -117.510573 
L 246.312547 -114.72958 
L 246.230058 -111.948588 
L 246.160847 -109.167595 
L 246.100482 -106.386602 
L 246.047961 -103.60561 
L 246.005141 -100.824617 
L 245.972726 -98.043625 
L 245.949099 -95.262632 
L 245.932101 -92.48164 
L 245.920445 -89.700647 
L 245.913233 -86.919655 
L 245.908914 -84.138662 
L 245.905516 -81.357669 
z
" style="stroke: #2196f3; stroke-opacity: 0.7"/>
    </defs>
    <g clip-path="url(#p8c9c852c70)">
     <use xlink:href="#m4c94f6e4fb" x="0" y="389.010938" style="fill: #2196f3; fill-opacity: 0.7; stroke: #2196f3; stroke-opacity: 0.7"/>
    </g>
   </g>
   <g id="FillBetweenPolyCollection_3">
    <defs>
     <path id="me5735d4400" d="M 378.263428 -60.596305 
L 378.005322 -60.596305 
L 377.862503 -63.535261 
L 377.614494 -66.474218 
L 377.228358 -69.413174 
L 376.681748 -72.352131 
L 375.963002 -75.291087 
L 375.065273 -78.230043 
L 373.980941 -81.169 
L 372.701652 -84.107956 
L 371.229841 -87.046912 
L 369.598069 -89.985869 
L 367.867677 -92.924825 
L 366.085697 -95.863781 
L 364.241599 -98.802738 
L 362.294485 -101.741694 
L 360.257906 -104.68065 
L 358.235687 -107.619607 
L 356.355476 -110.558563 
L 354.679829 -113.497519 
L 353.185906 -116.436476 
L 351.807216 -119.375432 
L 350.492492 -122.314388 
L 349.255782 -125.253345 
L 348.177802 -128.192301 
L 347.333459 -131.131258 
L 346.714415 -134.070214 
L 346.243154 -137.00917 
L 345.854161 -139.948127 
L 345.533088 -142.887083 
L 345.290665 -145.826039 
L 345.13658 -148.764996 
L 345.074021 -151.703952 
L 345.092303 -154.642908 
L 345.167953 -157.581865 
L 345.285965 -160.520821 
L 345.456629 -163.459777 
L 345.710374 -166.398734 
L 346.080259 -169.33769 
L 346.58739 -172.276646 
L 347.237887 -175.215603 
L 348.022065 -178.154559 
L 348.901878 -181.093515 
L 349.804516 -184.032472 
L 350.649225 -186.971428 
L 351.394955 -189.910385 
L 352.073296 -192.849341 
L 352.775287 -195.788297 
L 353.579242 -198.727254 
L 354.472588 -201.66621 
L 355.3605 -204.605166 
L 356.160467 -207.544123 
L 356.873227 -210.483079 
L 357.561928 -213.422035 
L 358.284822 -216.360992 
L 359.059656 -219.299948 
L 359.877909 -222.238904 
L 360.72331 -225.177861 
L 361.566301 -228.116817 
L 362.365571 -231.055773 
L 363.097765 -233.99473 
L 363.779901 -236.933686 
L 364.454205 -239.872642 
L 365.156074 -242.811599 
L 365.894215 -245.750555 
L 366.644401 -248.689512 
L 367.356529 -251.628468 
L 367.986113 -254.567424 
L 368.534522 -257.506381 
L 369.051111 -260.445337 
L 369.586188 -263.384293 
L 370.148082 -266.32325 
L 370.709524 -269.262206 
L 371.241807 -272.201162 
L 371.733674 -275.140119 
L 372.189239 -278.079075 
L 372.620782 -281.018031 
L 373.041142 -283.956988 
L 373.456908 -286.895944 
L 373.869375 -289.8349 
L 374.280508 -292.773857 
L 374.689386 -295.712813 
L 375.080772 -298.651769 
L 375.428438 -301.590726 
L 375.718803 -304.529682 
L 375.966748 -307.468639 
L 376.201577 -310.407595 
L 376.44049 -313.346551 
L 376.679172 -316.285508 
L 376.902721 -319.224464 
L 377.100325 -322.16342 
L 377.271994 -325.102377 
L 377.425631 -328.041333 
L 377.568658 -330.980289 
L 377.701786 -333.919246 
L 377.819588 -336.858202 
L 377.915799 -339.797158 
L 377.988329 -342.736115 
L 378.040154 -345.675071 
L 378.076338 -348.614027 
L 378.10103 -351.552984 
L 378.16772 -351.552984 
L 378.16772 -351.552984 
L 378.192412 -348.614027 
L 378.228596 -345.675071 
L 378.280421 -342.736115 
L 378.352951 -339.797158 
L 378.449162 -336.858202 
L 378.566964 -333.919246 
L 378.700092 -330.980289 
L 378.843119 -328.041333 
L 378.996756 -325.102377 
L 379.168425 -322.16342 
L 379.366029 -319.224464 
L 379.589578 -316.285508 
L 379.82826 -313.346551 
L 380.067173 -310.407595 
L 380.302002 -307.468639 
L 380.549947 -304.529682 
L 380.840312 -301.590726 
L 381.187978 -298.651769 
L 381.579364 -295.712813 
L 381.988242 -292.773857 
L 382.399375 -289.8349 
L 382.811842 -286.895944 
L 383.227608 -283.956988 
L 383.647968 -281.018031 
L 384.079511 -278.079075 
L 384.535076 -275.140119 
L 385.026943 -272.201162 
L 385.559226 -269.262206 
L 386.120668 -266.32325 
L 386.682562 -263.384293 
L 387.217639 -260.445337 
L 387.734228 -257.506381 
L 388.282637 -254.567424 
L 388.912221 -251.628468 
L 389.624349 -248.689512 
L 390.374535 -245.750555 
L 391.112676 -242.811599 
L 391.814545 -239.872642 
L 392.488849 -236.933686 
L 393.170985 -233.99473 
L 393.903179 -231.055773 
L 394.702449 -228.116817 
L 395.54544 -225.177861 
L 396.390841 -222.238904 
L 397.209094 -219.299948 
L 397.983928 -216.360992 
L 398.706822 -213.422035 
L 399.395523 -210.483079 
L 400.108283 -207.544123 
L 400.90825 -204.605166 
L 401.796162 -201.66621 
L 402.689508 -198.727254 
L 403.493463 -195.788297 
L 404.195454 -192.849341 
L 404.873795 -189.910385 
L 405.619525 -186.971428 
L 406.464234 -184.032472 
L 407.366872 -181.093515 
L 408.246685 -178.154559 
L 409.030863 -175.215603 
L 409.68136 -172.276646 
L 410.188491 -169.33769 
L 410.558376 -166.398734 
L 410.812121 -163.459777 
L 410.982785 -160.520821 
L 411.100797 -157.581865 
L 411.176447 -154.642908 
L 411.194729 -151.703952 
L 411.13217 -148.764996 
L 410.978085 -145.826039 
L 410.735662 -142.887083 
L 410.414589 -139.948127 
L 410.025596 -137.00917 
L 409.554335 -134.070214 
L 408.935291 -131.131258 
L 408.090948 -128.192301 
L 407.012968 -125.253345 
L 405.776258 -122.314388 
L 404.461534 -119.375432 
L 403.082844 -116.436476 
L 401.588921 -113.497519 
L 399.913274 -110.558563 
L 398.033063 -107.619607 
L 396.010844 -104.68065 
L 393.974265 -101.741694 
L 392.027151 -98.802738 
L 390.183053 -95.863781 
L 388.401073 -92.924825 
L 386.670681 -89.985869 
L 385.038909 -87.046912 
L 383.567098 -84.107956 
L 382.287809 -81.169 
L 381.203477 -78.230043 
L 380.305748 -75.291087 
L 379.587002 -72.352131 
L 379.040392 -69.413174 
L 378.654256 -66.474218 
L 378.406247 -63.535261 
L 378.263428 -60.596305 
z
" style="stroke: #ff9800; stroke-opacity: 0.7"/>
    </defs>
    <g clip-path="url(#p8c9c852c70)">
     <use xlink:href="#me5735d4400" x="0" y="389.010938" style="fill: #ff9800; fill-opacity: 0.7; stroke: #ff9800; stroke-opacity: 0.7"/>
    </g>
   </g>
   <g id="FillBetweenPolyCollection_4">
    <defs>
     <path id="mef90707587" d="M 512.081728 -56.602938 
L 508.66985 -56.602938 
L 506.400653 -59.199055 
L 502.924379 -61.795173 
L 498.484711 -64.391291 
L 493.547951 -66.987409 
L 488.651518 -69.583527 
L 484.425361 -72.179644 
L 481.191834 -74.775762 
L 478.944102 -77.37188 
L 477.710614 -79.967998 
L 477.315436 -82.564116 
L 477.463668 -85.160233 
L 478.011 -87.756351 
L 478.853103 -90.352469 
L 479.931728 -92.948587 
L 481.315232 -95.544705 
L 483.059656 -98.140822 
L 485.045658 -100.73694 
L 486.966478 -103.333058 
L 488.625577 -105.929176 
L 490.208312 -108.525294 
L 491.876239 -111.121411 
L 493.406651 -113.717529 
L 494.694315 -116.313647 
L 495.915183 -118.909765 
L 497.147841 -121.505883 
L 498.370359 -124.102001 
L 499.525205 -126.698118 
L 500.508339 -129.294236 
L 501.344857 -131.890354 
L 502.140933 -134.486472 
L 502.94087 -137.08259 
L 503.740174 -139.678707 
L 504.455545 -142.274825 
L 504.984001 -144.870943 
L 505.391882 -147.467061 
L 505.834772 -150.063179 
L 506.317391 -152.659296 
L 506.744754 -155.255414 
L 507.113247 -157.851532 
L 507.435809 -160.44765 
L 507.715213 -163.043768 
L 507.956697 -165.639885 
L 508.174702 -168.236003 
L 508.406654 -170.832121 
L 508.620986 -173.428239 
L 508.786535 -176.024357 
L 508.942425 -178.620474 
L 509.097881 -181.216592 
L 509.262392 -183.81271 
L 509.443938 -186.408828 
L 509.573516 -189.004946 
L 509.630233 -191.601064 
L 509.670974 -194.197181 
L 509.715257 -196.793299 
L 509.766153 -199.389417 
L 509.835463 -201.985535 
L 509.912018 -204.581653 
L 509.969263 -207.17777 
L 510.01161 -209.773888 
L 510.052559 -212.370006 
L 510.093579 -214.966124 
L 510.137333 -217.562242 
L 510.172979 -220.158359 
L 510.190174 -222.754477 
L 510.195594 -225.350595 
L 510.198793 -227.946713 
L 510.214408 -230.542831 
L 510.247 -233.138948 
L 510.275564 -235.735066 
L 510.281822 -238.331184 
L 510.279025 -240.927302 
L 510.289902 -243.52342 
L 510.310283 -246.119538 
L 510.323464 -248.715655 
L 510.328557 -251.311773 
L 510.333425 -253.907891 
L 510.341687 -256.504009 
L 510.35364 -259.100127 
L 510.362643 -261.696244 
L 510.363146 -264.292362 
L 510.358884 -266.88848 
L 510.356528 -269.484598 
L 510.358751 -272.080716 
L 510.362537 -274.676833 
L 510.365822 -277.272951 
L 510.368756 -279.869069 
L 510.368862 -282.465187 
L 510.366195 -285.061305 
L 510.364592 -287.657422 
L 510.367223 -290.25354 
L 510.372023 -292.849658 
L 510.374899 -295.445776 
L 510.375679 -298.041894 
L 510.375781 -300.638011 
L 510.375768 -303.234129 
L 510.375569 -305.830247 
L 510.374606 -308.426365 
L 510.372546 -311.022483 
L 510.37125 -313.618601 
L 510.380329 -313.618601 
L 510.380329 -313.618601 
L 510.379032 -311.022483 
L 510.376972 -308.426365 
L 510.376009 -305.830247 
L 510.37581 -303.234129 
L 510.375797 -300.638011 
L 510.375899 -298.041894 
L 510.376679 -295.445776 
L 510.379556 -292.849658 
L 510.384355 -290.25354 
L 510.386987 -287.657422 
L 510.385383 -285.061305 
L 510.382716 -282.465187 
L 510.382823 -279.869069 
L 510.385756 -277.272951 
L 510.389042 -274.676833 
L 510.392827 -272.080716 
L 510.39505 -269.484598 
L 510.392694 -266.88848 
L 510.388432 -264.292362 
L 510.388935 -261.696244 
L 510.397938 -259.100127 
L 510.409891 -256.504009 
L 510.418154 -253.907891 
L 510.423022 -251.311773 
L 510.428114 -248.715655 
L 510.441295 -246.119538 
L 510.461677 -243.52342 
L 510.472553 -240.927302 
L 510.469756 -238.331184 
L 510.476014 -235.735066 
L 510.504578 -233.138948 
L 510.53717 -230.542831 
L 510.552786 -227.946713 
L 510.555984 -225.350595 
L 510.561404 -222.754477 
L 510.578599 -220.158359 
L 510.614245 -217.562242 
L 510.658 -214.966124 
L 510.699019 -212.370006 
L 510.739969 -209.773888 
L 510.782315 -207.17777 
L 510.83956 -204.581653 
L 510.916115 -201.985535 
L 510.985425 -199.389417 
L 511.036321 -196.793299 
L 511.080604 -194.197181 
L 511.121345 -191.601064 
L 511.178063 -189.004946 
L 511.307641 -186.408828 
L 511.489186 -183.81271 
L 511.653698 -181.216592 
L 511.809154 -178.620474 
L 511.965043 -176.024357 
L 512.130592 -173.428239 
L 512.344925 -170.832121 
L 512.576876 -168.236003 
L 512.794881 -165.639885 
L 513.036365 -163.043768 
L 513.31577 -160.44765 
L 513.638331 -157.851532 
L 514.006824 -155.255414 
L 514.434187 -152.659296 
L 514.916806 -150.063179 
L 515.359696 -147.467061 
L 515.767577 -144.870943 
L 516.296033 -142.274825 
L 517.011405 -139.678707 
L 517.810709 -137.08259 
L 518.610646 -134.486472 
L 519.406722 -131.890354 
L 520.243239 -129.294236 
L 521.226373 -126.698118 
L 522.381219 -124.102001 
L 523.603737 -121.505883 
L 524.836395 -118.909765 
L 526.057263 -116.313647 
L 527.344928 -113.717529 
L 528.87534 -111.121411 
L 530.543266 -108.525294 
L 532.126001 -105.929176 
L 533.7851 -103.333058 
L 535.70592 -100.73694 
L 537.691922 -98.140822 
L 539.436347 -95.544705 
L 540.81985 -92.948587 
L 541.898475 -90.352469 
L 542.740578 -87.756351 
L 543.28791 -85.160233 
L 543.436143 -82.564116 
L 543.040964 -79.967998 
L 541.807476 -77.37188 
L 539.559744 -74.775762 
L 536.326217 -72.179644 
L 532.100061 -69.583527 
L 527.203627 -66.987409 
L 522.266867 -64.391291 
L 517.827199 -61.795173 
L 514.350925 -59.199055 
L 512.081728 -56.602938 
z
" style="stroke: #e91e63; stroke-opacity: 0.7"/>
    </defs>
    <g clip-path="url(#p8c9c852c70)">
     <use xlink:href="#mef90707587" x="0" y="389.010938" style="fill: #e91e63; fill-opacity: 0.7; stroke: #e91e63; stroke-opacity: 0.7"/>
    </g>
   </g>
   <g id="FillBetweenPolyCollection_5">
    <defs>
     <path id="m6818cf1ddb" d="M 670.339179 -56.602938 
L 614.895227 -56.602938 
L 609.55685 -58.107871 
L 609.959042 -59.612804 
L 609.69313 -61.117738 
L 610.584648 -62.622671 
L 612.347362 -64.127604 
L 614.797759 -65.632538 
L 617.970126 -67.137471 
L 621.109439 -68.642404 
L 623.756538 -70.147338 
L 626.339392 -71.652271 
L 628.435683 -73.157205 
L 630.298363 -74.662138 
L 632.094806 -76.167071 
L 633.664881 -77.672005 
L 634.869667 -79.176938 
L 635.958224 -80.681871 
L 637.021188 -82.186805 
L 637.907904 -83.691738 
L 638.458449 -85.196671 
L 639.012073 -86.701605 
L 639.580811 -88.206538 
L 640.024501 -89.711472 
L 640.388679 -91.216405 
L 640.688565 -92.721338 
L 640.9196 -94.226272 
L 641.174626 -95.731205 
L 641.382602 -97.236138 
L 641.530899 -98.741072 
L 641.688197 -100.246005 
L 641.82762 -101.750939 
L 642.019961 -103.255872 
L 642.096453 -104.760805 
L 642.12582 -106.265739 
L 642.169909 -107.770672 
L 642.205884 -109.275605 
L 642.260423 -110.780539 
L 642.333574 -112.285472 
L 642.366353 -113.790405 
L 642.396326 -115.295339 
L 642.42647 -116.800272 
L 642.451211 -118.305206 
L 642.486583 -119.810139 
L 642.510187 -121.315072 
L 642.511436 -122.820006 
L 642.519899 -124.324939 
L 642.51287 -125.829872 
L 642.52365 -127.334806 
L 642.548138 -128.839739 
L 642.573504 -130.344673 
L 642.575284 -131.849606 
L 642.561892 -133.354539 
L 642.562438 -134.859473 
L 642.57876 -136.364406 
L 642.592528 -137.869339 
L 642.595674 -139.374273 
L 642.591429 -140.879206 
L 642.598162 -142.384139 
L 642.597685 -143.889073 
L 642.599448 -145.394006 
L 642.608533 -146.89894 
L 642.61353 -148.403873 
L 642.61582 -149.908806 
L 642.612159 -151.41374 
L 642.609143 -152.918673 
L 642.610386 -154.423606 
L 642.605351 -155.92854 
L 642.609774 -157.433473 
L 642.614528 -158.938407 
L 642.612165 -160.44334 
L 642.611353 -161.948273 
L 642.614031 -163.453207 
L 642.616688 -164.95814 
L 642.616815 -166.463073 
L 642.614618 -167.968007 
L 642.613286 -169.47294 
L 642.614954 -170.977873 
L 642.611815 -172.482807 
L 642.610005 -173.98774 
L 642.614649 -175.492674 
L 642.616977 -176.997607 
L 642.617199 -178.50254 
L 642.617203 -180.007474 
L 642.617203 -181.512407 
L 642.617203 -183.01734 
L 642.617203 -184.522274 
L 642.617203 -186.027207 
L 642.617203 -187.53214 
L 642.617203 -189.037074 
L 642.617203 -190.542007 
L 642.617203 -192.046941 
L 642.617203 -193.551874 
L 642.617203 -195.056807 
L 642.617203 -196.561741 
L 642.617203 -198.066674 
L 642.617203 -199.571607 
L 642.617199 -201.076541 
L 642.617017 -202.581474 
L 642.615331 -204.086408 
L 642.61316 -205.591341 
L 642.621246 -205.591341 
L 642.621246 -205.591341 
L 642.619076 -204.086408 
L 642.617389 -202.581474 
L 642.617207 -201.076541 
L 642.617203 -199.571607 
L 642.617203 -198.066674 
L 642.617203 -196.561741 
L 642.617203 -195.056807 
L 642.617203 -193.551874 
L 642.617203 -192.046941 
L 642.617203 -190.542007 
L 642.617203 -189.037074 
L 642.617203 -187.53214 
L 642.617203 -186.027207 
L 642.617203 -184.522274 
L 642.617203 -183.01734 
L 642.617203 -181.512407 
L 642.617203 -180.007474 
L 642.617208 -178.50254 
L 642.617429 -176.997607 
L 642.619758 -175.492674 
L 642.624402 -173.98774 
L 642.622592 -172.482807 
L 642.619453 -170.977873 
L 642.621121 -169.47294 
L 642.619788 -167.968007 
L 642.617592 -166.463073 
L 642.617718 -164.95814 
L 642.620376 -163.453207 
L 642.623053 -161.948273 
L 642.622242 -160.44334 
L 642.619879 -158.938407 
L 642.624632 -157.433473 
L 642.629056 -155.92854 
L 642.624021 -154.423606 
L 642.625264 -152.918673 
L 642.622248 -151.41374 
L 642.618587 -149.908806 
L 642.620877 -148.403873 
L 642.625874 -146.89894 
L 642.634959 -145.394006 
L 642.636722 -143.889073 
L 642.636245 -142.384139 
L 642.642977 -140.879206 
L 642.638733 -139.374273 
L 642.641879 -137.869339 
L 642.655647 -136.364406 
L 642.671968 -134.859473 
L 642.672515 -133.354539 
L 642.659122 -131.849606 
L 642.660902 -130.344673 
L 642.686269 -128.839739 
L 642.710757 -127.334806 
L 642.721536 -125.829872 
L 642.714507 -124.324939 
L 642.72297 -122.820006 
L 642.72422 -121.315072 
L 642.747824 -119.810139 
L 642.783196 -118.305206 
L 642.807937 -116.800272 
L 642.83808 -115.295339 
L 642.868054 -113.790405 
L 642.900833 -112.285472 
L 642.973984 -110.780539 
L 643.028522 -109.275605 
L 643.064497 -107.770672 
L 643.108586 -106.265739 
L 643.137953 -104.760805 
L 643.214446 -103.255872 
L 643.406787 -101.750939 
L 643.54621 -100.246005 
L 643.703508 -98.741072 
L 643.851805 -97.236138 
L 644.05978 -95.731205 
L 644.314806 -94.226272 
L 644.545841 -92.721338 
L 644.845727 -91.216405 
L 645.209905 -89.711472 
L 645.653595 -88.206538 
L 646.222334 -86.701605 
L 646.775957 -85.196671 
L 647.326502 -83.691738 
L 648.213218 -82.186805 
L 649.276182 -80.681871 
L 650.364739 -79.176938 
L 651.569525 -77.672005 
L 653.1396 -76.167071 
L 654.936043 -74.662138 
L 656.798724 -73.157205 
L 658.895015 -71.652271 
L 661.477868 -70.147338 
L 664.124967 -68.642404 
L 667.26428 -67.137471 
L 670.436647 -65.632538 
L 672.887045 -64.127604 
L 674.649759 -62.622671 
L 675.541276 -61.117738 
L 675.275365 -59.612804 
L 675.677557 -58.107871 
L 670.339179 -56.602938 
z
" style="stroke: #9c27b0; stroke-opacity: 0.7"/>
    </defs>
    <g clip-path="url(#p8c9c852c70)">
     <use xlink:href="#m6818cf1ddb" x="0" y="389.010938" style="fill: #9c27b0; fill-opacity: 0.7; stroke: #9c27b0; stroke-opacity: 0.7"/>
    </g>
   </g>
   <g id="matplotlib.axis_1">
    <g id="xtick_1">
     <g id="line2d_1">
      <defs>
       <path id="mc14488de34" d="M 0 0 
L 0 3.5 
" style="stroke: #000000; stroke-width: 0.8"/>
      </defs>
      <g>
       <use xlink:href="#mc14488de34" x="113.651547" y="344.68" style="stroke: #000000; stroke-width: 0.8"/>
      </g>
     </g>
     <g id="text_1">
      <!-- $100 -->
      <g transform="translate(97.109047 361.557969) scale(0.13 -0.13)">
       <defs>
        <path id="DejaVuSans-24" d="M 2163 -941 
L 1850 -941 
L 1847 0 
Q 1519 6 1191 76 
Q 863 147 531 288 
L 531 850 
Q 850 650 1176 548 
Q 1503 447 1850 444 
L 1850 1869 
Q 1159 1981 845 2250 
Q 531 2519 531 2988 
Q 531 3497 872 3790 
Q 1213 4084 1850 4128 
L 1850 4863 
L 2163 4863 
L 2163 4138 
Q 2453 4125 2725 4076 
Q 2997 4028 3256 3944 
L 3256 3397 
Q 2997 3528 2723 3600 
Q 2450 3672 2163 3684 
L 2163 2350 
Q 2872 2241 3206 1959 
Q 3541 1678 3541 1191 
Q 3541 663 3186 358 
Q 2831 53 2163 6 
L 2163 -941 
z
M 1850 2406 
L 1850 3688 
Q 1488 3647 1297 3481 
Q 1106 3316 1106 3041 
Q 1106 2772 1282 2622 
Q 1459 2472 1850 2406 
z
M 2163 1806 
L 2163 453 
Q 2559 506 2761 678 
Q 2963 850 2963 1131 
Q 2963 1406 2770 1568 
Q 2578 1731 2163 1806 
z
" transform="scale(0.015625)"/>
        <path id="DejaVuSans-31" d="M 794 531 
L 1825 531 
L 1825 4091 
L 703 3866 
L 703 4441 
L 1819 4666 
L 2450 4666 
L 2450 531 
L 3481 531 
L 3481 0 
L 794 0 
L 794 531 
z
" transform="scale(0.015625)"/>
        <path id="DejaVuSans-30" d="M 2034 4250 
Q 1547 4250 1301 3770 
Q 1056 3291 1056 2328 
Q 1056 1369 1301 889 
Q 1547 409 2034 409 
Q 2525 409 2770 889 
Q 3016 1369 3016 2328 
Q 3016 3291 2770 3770 
Q 2525 4250 2034 4250 
z
M 2034 4750 
Q 2819 4750 3233 4129 
Q 3647 3509 3647 2328 
Q 3647 1150 3233 529 
Q 2819 -91 2034 -91 
Q 1250 -91 836 529 
Q 422 1150 422 2328 
Q 422 3509 836 4129 
Q 1250 4750 2034 4750 
z
" transform="scale(0.015625)"/>
       </defs>
       <use xlink:href="#DejaVuSans-24"/>
       <use xlink:href="#DejaVuSans-31" transform="translate(63.623047 0)"/>
       <use xlink:href="#DejaVuSans-30" transform="translate(127.246094 0)"/>
       <use xlink:href="#DejaVuSans-30" transform="translate(190.869141 0)"/>
      </g>
     </g>
    </g>
    <g id="xtick_2">
     <g id="line2d_2">
      <g>
       <use xlink:href="#mc14488de34" x="245.892961" y="344.68" style="stroke: #000000; stroke-width: 0.8"/>
      </g>
     </g>
     <g id="text_2">
      <!-- $1K -->
      <g transform="translate(233.359133 361.557969) scale(0.13 -0.13)">
       <defs>
        <path id="DejaVuSans-4b" d="M 628 4666 
L 1259 4666 
L 1259 2694 
L 3353 4666 
L 4166 4666 
L 1850 2491 
L 4331 0 
L 3500 0 
L 1259 2247 
L 1259 0 
L 628 0 
L 628 4666 
z
" transform="scale(0.015625)"/>
       </defs>
       <use xlink:href="#DejaVuSans-24"/>
       <use xlink:href="#DejaVuSans-31" transform="translate(63.623047 0)"/>
       <use xlink:href="#DejaVuSans-4b" transform="translate(127.246094 0)"/>
      </g>
     </g>
    </g>
    <g id="xtick_3">
     <g id="line2d_3">
      <g>
       <use xlink:href="#mc14488de34" x="378.134375" y="344.68" style="stroke: #000000; stroke-width: 0.8"/>
      </g>
     </g>
     <g id="text_3">
      <!-- $10K -->
      <g transform="translate(361.464922 361.557969) scale(0.13 -0.13)">
       <use xlink:href="#DejaVuSans-24"/>
       <use xlink:href="#DejaVuSans-31" transform="translate(63.623047 0)"/>
       <use xlink:href="#DejaVuSans-30" transform="translate(127.246094 0)"/>
       <use xlink:href="#DejaVuSans-4b" transform="translate(190.869141 0)"/>
      </g>
     </g>
    </g>
    <g id="xtick_4">
     <g id="line2d_4">
      <g>
       <use xlink:href="#mc14488de34" x="510.375789" y="344.68" style="stroke: #000000; stroke-width: 0.8"/>
      </g>
     </g>
     <g id="text_4">
      <!-- $100K -->
      <g transform="translate(489.570711 361.557969) scale(0.13 -0.13)">
       <use xlink:href="#DejaVuSans-24"/>
       <use xlink:href="#DejaVuSans-31" transform="translate(63.623047 0)"/>
       <use xlink:href="#DejaVuSans-30" transform="translate(127.246094 0)"/>
       <use xlink:href="#DejaVuSans-30" transform="translate(190.869141 0)"/>
       <use xlink:href="#DejaVuSans-4b" transform="translate(254.492188 0)"/>
      </g>
     </g>
    </g>
    <g id="xtick_5">
     <g id="line2d_5">
      <g>
       <use xlink:href="#mc14488de34" x="642.617203" y="344.68" style="stroke: #000000; stroke-width: 0.8"/>
      </g>
     </g>
     <g id="text_5">
      <!-- $1M -->
      <g transform="translate(628.737672 361.557969) scale(0.13 -0.13)">
       <defs>
        <path id="DejaVuSans-4d" d="M 628 4666 
L 1569 4666 
L 2759 1491 
L 3956 4666 
L 4897 4666 
L 4897 0 
L 4281 0 
L 4281 4097 
L 3078 897 
L 2444 897 
L 1241 4097 
L 1241 0 
L 628 0 
L 628 4666 
z
" transform="scale(0.015625)"/>
       </defs>
       <use xlink:href="#DejaVuSans-24"/>
       <use xlink:href="#DejaVuSans-31" transform="translate(63.623047 0)"/>
       <use xlink:href="#DejaVuSans-4d" transform="translate(127.246094 0)"/>
      </g>
     </g>
    </g>
    <g id="text_6">
     <!-- Guaranteed amount (X) -->
     <g transform="translate(294.863906 378.899375) scale(0.14 -0.14)">
      <defs>
       <path id="DejaVuSans-47" d="M 3809 666 
L 3809 1919 
L 2778 1919 
L 2778 2438 
L 4434 2438 
L 4434 434 
Q 4069 175 3628 42 
Q 3188 -91 2688 -91 
Q 1594 -91 976 548 
Q 359 1188 359 2328 
Q 359 3472 976 4111 
Q 1594 4750 2688 4750 
Q 3144 4750 3555 4637 
Q 3966 4525 4313 4306 
L 4313 3634 
Q 3963 3931 3569 4081 
Q 3175 4231 2741 4231 
Q 1884 4231 1454 3753 
Q 1025 3275 1025 2328 
Q 1025 1384 1454 906 
Q 1884 428 2741 428 
Q 3075 428 3337 486 
Q 3600 544 3809 666 
z
" transform="scale(0.015625)"/>
       <path id="DejaVuSans-75" d="M 544 1381 
L 544 3500 
L 1119 3500 
L 1119 1403 
Q 1119 906 1312 657 
Q 1506 409 1894 409 
Q 2359 409 2629 706 
Q 2900 1003 2900 1516 
L 2900 3500 
L 3475 3500 
L 3475 0 
L 2900 0 
L 2900 538 
Q 2691 219 2414 64 
Q 2138 -91 1772 -91 
Q 1169 -91 856 284 
Q 544 659 544 1381 
z
M 1991 3584 
L 1991 3584 
z
" transform="scale(0.015625)"/>
       <path id="DejaVuSans-61" d="M 2194 1759 
Q 1497 1759 1228 1600 
Q 959 1441 959 1056 
Q 959 750 1161 570 
Q 1363 391 1709 391 
Q 2188 391 2477 730 
Q 2766 1069 2766 1631 
L 2766 1759 
L 2194 1759 
z
M 3341 1997 
L 3341 0 
L 2766 0 
L 2766 531 
Q 2569 213 2275 61 
Q 1981 -91 1556 -91 
Q 1019 -91 701 211 
Q 384 513 384 1019 
Q 384 1609 779 1909 
Q 1175 2209 1959 2209 
L 2766 2209 
L 2766 2266 
Q 2766 2663 2505 2880 
Q 2244 3097 1772 3097 
Q 1472 3097 1187 3025 
Q 903 2953 641 2809 
L 641 3341 
Q 956 3463 1253 3523 
Q 1550 3584 1831 3584 
Q 2591 3584 2966 3190 
Q 3341 2797 3341 1997 
z
" transform="scale(0.015625)"/>
       <path id="DejaVuSans-72" d="M 2631 2963 
Q 2534 3019 2420 3045 
Q 2306 3072 2169 3072 
Q 1681 3072 1420 2755 
Q 1159 2438 1159 1844 
L 1159 0 
L 581 0 
L 581 3500 
L 1159 3500 
L 1159 2956 
Q 1341 3275 1631 3429 
Q 1922 3584 2338 3584 
Q 2397 3584 2469 3576 
Q 2541 3569 2628 3553 
L 2631 2963 
z
" transform="scale(0.015625)"/>
       <path id="DejaVuSans-6e" d="M 3513 2113 
L 3513 0 
L 2938 0 
L 2938 2094 
Q 2938 2591 2744 2837 
Q 2550 3084 2163 3084 
Q 1697 3084 1428 2787 
Q 1159 2491 1159 1978 
L 1159 0 
L 581 0 
L 581 3500 
L 1159 3500 
L 1159 2956 
Q 1366 3272 1645 3428 
Q 1925 3584 2291 3584 
Q 2894 3584 3203 3211 
Q 3513 2838 3513 2113 
z
" transform="scale(0.015625)"/>
       <path id="DejaVuSans-74" d="M 1172 4494 
L 1172 3500 
L 2356 3500 
L 2356 3053 
L 1172 3053 
L 1172 1153 
Q 1172 725 1289 603 
Q 1406 481 1766 481 
L 2356 481 
L 2356 0 
L 1766 0 
Q 1100 0 847 248 
Q 594 497 594 1153 
L 594 3053 
L 172 3053 
L 172 3500 
L 594 3500 
L 594 4494 
L 1172 4494 
z
" transform="scale(0.015625)"/>
       <path id="DejaVuSans-65" d="M 3597 1894 
L 3597 1613 
L 953 1613 
Q 991 1019 1311 708 
Q 1631 397 2203 397 
Q 2534 397 2845 478 
Q 3156 559 3463 722 
L 3463 178 
Q 3153 47 2828 -22 
Q 2503 -91 2169 -91 
Q 1331 -91 842 396 
Q 353 884 353 1716 
Q 353 2575 817 3079 
Q 1281 3584 2069 3584 
Q 2775 3584 3186 3129 
Q 3597 2675 3597 1894 
z
M 3022 2063 
Q 3016 2534 2758 2815 
Q 2500 3097 2075 3097 
Q 1594 3097 1305 2825 
Q 1016 2553 972 2059 
L 3022 2063 
z
" transform="scale(0.015625)"/>
       <path id="DejaVuSans-64" d="M 2906 2969 
L 2906 4863 
L 3481 4863 
L 3481 0 
L 2906 0 
L 2906 525 
Q 2725 213 2448 61 
Q 2172 -91 1784 -91 
Q 1150 -91 751 415 
Q 353 922 353 1747 
Q 353 2572 751 3078 
Q 1150 3584 1784 3584 
Q 2172 3584 2448 3432 
Q 2725 3281 2906 2969 
z
M 947 1747 
Q 947 1113 1208 752 
Q 1469 391 1925 391 
Q 2381 391 2643 752 
Q 2906 1113 2906 1747 
Q 2906 2381 2643 2742 
Q 2381 3103 1925 3103 
Q 1469 3103 1208 2742 
Q 947 2381 947 1747 
z
" transform="scale(0.015625)"/>
       <path id="DejaVuSans-20" transform="scale(0.015625)"/>
       <path id="DejaVuSans-6d" d="M 3328 2828 
Q 3544 3216 3844 3400 
Q 4144 3584 4550 3584 
Q 5097 3584 5394 3201 
Q 5691 2819 5691 2113 
L 5691 0 
L 5113 0 
L 5113 2094 
Q 5113 2597 4934 2840 
Q 4756 3084 4391 3084 
Q 3944 3084 3684 2787 
Q 3425 2491 3425 1978 
L 3425 0 
L 2847 0 
L 2847 2094 
Q 2847 2600 2669 2842 
Q 2491 3084 2119 3084 
Q 1678 3084 1418 2786 
Q 1159 2488 1159 1978 
L 1159 0 
L 581 0 
L 581 3500 
L 1159 3500 
L 1159 2956 
Q 1356 3278 1631 3431 
Q 1906 3584 2284 3584 
Q 2666 3584 2933 3390 
Q 3200 3197 3328 2828 
z
" transform="scale(0.015625)"/>
       <path id="DejaVuSans-6f" d="M 1959 3097 
Q 1497 3097 1228 2736 
Q 959 2375 959 1747 
Q 959 1119 1226 758 
Q 1494 397 1959 397 
Q 2419 397 2687 759 
Q 2956 1122 2956 1747 
Q 2956 2369 2687 2733 
Q 2419 3097 1959 3097 
z
M 1959 3584 
Q 2709 3584 3137 3096 
Q 3566 2609 3566 1747 
Q 3566 888 3137 398 
Q 2709 -91 1959 -91 
Q 1206 -91 779 398 
Q 353 888 353 1747 
Q 353 2609 779 3096 
Q 1206 3584 1959 3584 
z
" transform="scale(0.015625)"/>
       <path id="DejaVuSans-28" d="M 1984 4856 
Q 1566 4138 1362 3434 
Q 1159 2731 1159 2009 
Q 1159 1288 1364 580 
Q 1569 -128 1984 -844 
L 1484 -844 
Q 1016 -109 783 600 
Q 550 1309 550 2009 
Q 550 2706 781 3412 
Q 1013 4119 1484 4856 
L 1984 4856 
z
" transform="scale(0.015625)"/>
       <path id="DejaVuSans-58" d="M 403 4666 
L 1081 4666 
L 2241 2931 
L 3406 4666 
L 4084 4666 
L 2584 2425 
L 4184 0 
L 3506 0 
L 2194 1984 
L 872 0 
L 191 0 
L 1856 2491 
L 403 4666 
z
" transform="scale(0.015625)"/>
       <path id="DejaVuSans-29" d="M 513 4856 
L 1013 4856 
Q 1481 4119 1714 3412 
Q 1947 2706 1947 2009 
Q 1947 1309 1714 600 
Q 1481 -109 1013 -844 
L 513 -844 
Q 928 -128 1133 580 
Q 1338 1288 1338 2009 
Q 1338 2731 1133 3434 
Q 928 4138 513 4856 
z
" transform="scale(0.015625)"/>
      </defs>
      <use xlink:href="#DejaVuSans-47"/>
      <use xlink:href="#DejaVuSans-75" transform="translate(77.490234 0)"/>
      <use xlink:href="#DejaVuSans-61" transform="translate(140.869141 0)"/>
      <use xlink:href="#DejaVuSans-72" transform="translate(202.148438 0)"/>
      <use xlink:href="#DejaVuSans-61" transform="translate(243.261719 0)"/>
      <use xlink:href="#DejaVuSans-6e" transform="translate(304.541016 0)"/>
      <use xlink:href="#DejaVuSans-74" transform="translate(367.919922 0)"/>
      <use xlink:href="#DejaVuSans-65" transform="translate(407.128906 0)"/>
      <use xlink:href="#DejaVuSans-65" transform="translate(468.652344 0)"/>
      <use xlink:href="#DejaVuSans-64" transform="translate(530.175781 0)"/>
      <use xlink:href="#DejaVuSans-20" transform="translate(593.652344 0)"/>
      <use xlink:href="#DejaVuSans-61" transform="translate(625.439453 0)"/>
      <use xlink:href="#DejaVuSans-6d" transform="translate(686.71875 0)"/>
      <use xlink:href="#DejaVuSans-6f" transform="translate(784.130859 0)"/>
      <use xlink:href="#DejaVuSans-75" transform="translate(845.3125 0)"/>
      <use xlink:href="#DejaVuSans-6e" transform="translate(908.691406 0)"/>
      <use xlink:href="#DejaVuSans-74" transform="translate(972.070312 0)"/>
      <use xlink:href="#DejaVuSans-20" transform="translate(1011.279297 0)"/>
      <use xlink:href="#DejaVuSans-28" transform="translate(1043.066406 0)"/>
      <use xlink:href="#DejaVuSans-58" transform="translate(1082.080078 0)"/>
      <use xlink:href="#DejaVuSans-29" transform="translate(1150.585938 0)"/>
     </g>
    </g>
   </g>
   <g id="matplotlib.axis_2">
    <g id="ytick_1">
     <g id="line2d_6">
      <path d="M 50.836875 338.544 
L 705.431875 338.544 
" clip-path="url(#p8c9c852c70)" style="fill: none; stroke: #b0b0b0; stroke-opacity: 0.2; stroke-width: 0.8; stroke-linecap: square"/>
     </g>
     <g id="line2d_7">
      <defs>
       <path id="m489417cc35" d="M 0 0 
L -3.5 0 
" style="stroke: #000000; stroke-width: 0.8"/>
      </defs>
      <g>
       <use xlink:href="#m489417cc35" x="50.836875" y="338.544" style="stroke: #000000; stroke-width: 0.8"/>
      </g>
     </g>
     <g id="text_7">
      <!-- 0 -->
      <g transform="translate(37.474375 342.343219) scale(0.1 -0.1)">
       <use xlink:href="#DejaVuSans-30"/>
      </g>
     </g>
    </g>
    <g id="ytick_2">
     <g id="line2d_8">
      <path d="M 50.836875 277.184 
L 705.431875 277.184 
" clip-path="url(#p8c9c852c70)" style="fill: none; stroke: #b0b0b0; stroke-opacity: 0.2; stroke-width: 0.8; stroke-linecap: square"/>
     </g>
     <g id="line2d_9">
      <g>
       <use xlink:href="#m489417cc35" x="50.836875" y="277.184" style="stroke: #000000; stroke-width: 0.8"/>
      </g>
     </g>
     <g id="text_8">
      <!-- 20 -->
      <g transform="translate(31.111875 280.983219) scale(0.1 -0.1)">
       <defs>
        <path id="DejaVuSans-32" d="M 1228 531 
L 3431 531 
L 3431 0 
L 469 0 
L 469 531 
Q 828 903 1448 1529 
Q 2069 2156 2228 2338 
Q 2531 2678 2651 2914 
Q 2772 3150 2772 3378 
Q 2772 3750 2511 3984 
Q 2250 4219 1831 4219 
Q 1534 4219 1204 4116 
Q 875 4013 500 3803 
L 500 4441 
Q 881 4594 1212 4672 
Q 1544 4750 1819 4750 
Q 2544 4750 2975 4387 
Q 3406 4025 3406 3419 
Q 3406 3131 3298 2873 
Q 3191 2616 2906 2266 
Q 2828 2175 2409 1742 
Q 1991 1309 1228 531 
z
" transform="scale(0.015625)"/>
       </defs>
       <use xlink:href="#DejaVuSans-32"/>
       <use xlink:href="#DejaVuSans-30" transform="translate(63.623047 0)"/>
      </g>
     </g>
    </g>
    <g id="ytick_3">
     <g id="line2d_10">
      <path d="M 50.836875 215.824 
L 705.431875 215.824 
" clip-path="url(#p8c9c852c70)" style="fill: none; stroke: #b0b0b0; stroke-opacity: 0.2; stroke-width: 0.8; stroke-linecap: square"/>
     </g>
     <g id="line2d_11">
      <g>
       <use xlink:href="#m489417cc35" x="50.836875" y="215.824" style="stroke: #000000; stroke-width: 0.8"/>
      </g>
     </g>
     <g id="text_9">
      <!-- 40 -->
      <g transform="translate(31.111875 219.623219) scale(0.1 -0.1)">
       <defs>
        <path id="DejaVuSans-34" d="M 2419 4116 
L 825 1625 
L 2419 1625 
L 2419 4116 
z
M 2253 4666 
L 3047 4666 
L 3047 1625 
L 3713 1625 
L 3713 1100 
L 3047 1100 
L 3047 0 
L 2419 0 
L 2419 1100 
L 313 1100 
L 313 1709 
L 2253 4666 
z
" transform="scale(0.015625)"/>
       </defs>
       <use xlink:href="#DejaVuSans-34"/>
       <use xlink:href="#DejaVuSans-30" transform="translate(63.623047 0)"/>
      </g>
     </g>
    </g>
    <g id="ytick_4">
     <g id="line2d_12">
      <path d="M 50.836875 154.464 
L 705.431875 154.464 
" clip-path="url(#p8c9c852c70)" style="fill: none; stroke: #b0b0b0; stroke-opacity: 0.2; stroke-width: 0.8; stroke-linecap: square"/>
     </g>
     <g id="line2d_13">
      <g>
       <use xlink:href="#m489417cc35" x="50.836875" y="154.464" style="stroke: #000000; stroke-width: 0.8"/>
      </g>
     </g>
     <g id="text_10">
      <!-- 60 -->
      <g transform="translate(31.111875 158.263219) scale(0.1 -0.1)">
       <defs>
        <path id="DejaVuSans-36" d="M 2113 2584 
Q 1688 2584 1439 2293 
Q 1191 2003 1191 1497 
Q 1191 994 1439 701 
Q 1688 409 2113 409 
Q 2538 409 2786 701 
Q 3034 994 3034 1497 
Q 3034 2003 2786 2293 
Q 2538 2584 2113 2584 
z
M 3366 4563 
L 3366 3988 
Q 3128 4100 2886 4159 
Q 2644 4219 2406 4219 
Q 1781 4219 1451 3797 
Q 1122 3375 1075 2522 
Q 1259 2794 1537 2939 
Q 1816 3084 2150 3084 
Q 2853 3084 3261 2657 
Q 3669 2231 3669 1497 
Q 3669 778 3244 343 
Q 2819 -91 2113 -91 
Q 1303 -91 875 529 
Q 447 1150 447 2328 
Q 447 3434 972 4092 
Q 1497 4750 2381 4750 
Q 2619 4750 2861 4703 
Q 3103 4656 3366 4563 
z
" transform="scale(0.015625)"/>
       </defs>
       <use xlink:href="#DejaVuSans-36"/>
       <use xlink:href="#DejaVuSans-30" transform="translate(63.623047 0)"/>
      </g>
     </g>
    </g>
    <g id="ytick_5">
     <g id="line2d_14">
      <path d="M 50.836875 93.104 
L 705.431875 93.104 
" clip-path="url(#p8c9c852c70)" style="fill: none; stroke: #b0b0b0; stroke-opacity: 0.2; stroke-width: 0.8; stroke-linecap: square"/>
     </g>
     <g id="line2d_15">
      <g>
       <use xlink:href="#m489417cc35" x="50.836875" y="93.104" style="stroke: #000000; stroke-width: 0.8"/>
      </g>
     </g>
     <g id="text_11">
      <!-- 80 -->
      <g transform="translate(31.111875 96.903219) scale(0.1 -0.1)">
       <defs>
        <path id="DejaVuSans-38" d="M 2034 2216 
Q 1584 2216 1326 1975 
Q 1069 1734 1069 1313 
Q 1069 891 1326 650 
Q 1584 409 2034 409 
Q 2484 409 2743 651 
Q 3003 894 3003 1313 
Q 3003 1734 2745 1975 
Q 2488 2216 2034 2216 
z
M 1403 2484 
Q 997 2584 770 2862 
Q 544 3141 544 3541 
Q 544 4100 942 4425 
Q 1341 4750 2034 4750 
Q 2731 4750 3128 4425 
Q 3525 4100 3525 3541 
Q 3525 3141 3298 2862 
Q 3072 2584 2669 2484 
Q 3125 2378 3379 2068 
Q 3634 1759 3634 1313 
Q 3634 634 3220 271 
Q 2806 -91 2034 -91 
Q 1263 -91 848 271 
Q 434 634 434 1313 
Q 434 1759 690 2068 
Q 947 2378 1403 2484 
z
M 1172 3481 
Q 1172 3119 1398 2916 
Q 1625 2713 2034 2713 
Q 2441 2713 2670 2916 
Q 2900 3119 2900 3481 
Q 2900 3844 2670 4047 
Q 2441 4250 2034 4250 
Q 1625 4250 1398 4047 
Q 1172 3844 1172 3481 
z
" transform="scale(0.015625)"/>
       </defs>
       <use xlink:href="#DejaVuSans-38"/>
       <use xlink:href="#DejaVuSans-30" transform="translate(63.623047 0)"/>
      </g>
     </g>
    </g>
    <g id="ytick_6">
     <g id="line2d_16">
      <path d="M 50.836875 31.744 
L 705.431875 31.744 
" clip-path="url(#p8c9c852c70)" style="fill: none; stroke: #b0b0b0; stroke-opacity: 0.2; stroke-width: 0.8; stroke-linecap: square"/>
     </g>
     <g id="line2d_17">
      <g>
       <use xlink:href="#m489417cc35" x="50.836875" y="31.744" style="stroke: #000000; stroke-width: 0.8"/>
      </g>
     </g>
     <g id="text_12">
      <!-- 100 -->
      <g transform="translate(24.749375 35.543219) scale(0.1 -0.1)">
       <use xlink:href="#DejaVuSans-31"/>
       <use xlink:href="#DejaVuSans-30" transform="translate(63.623047 0)"/>
       <use xlink:href="#DejaVuSans-30" transform="translate(127.246094 0)"/>
      </g>
     </g>
    </g>
    <g id="text_13">
     <!-- Ticket price as % of expected value -->
     <g transform="translate(17.837813 300.290625) rotate(-90) scale(0.14 -0.14)">
      <defs>
       <path id="DejaVuSans-54" d="M -19 4666 
L 3928 4666 
L 3928 4134 
L 2272 4134 
L 2272 0 
L 1638 0 
L 1638 4134 
L -19 4134 
L -19 4666 
z
" transform="scale(0.015625)"/>
       <path id="DejaVuSans-69" d="M 603 3500 
L 1178 3500 
L 1178 0 
L 603 0 
L 603 3500 
z
M 603 4863 
L 1178 4863 
L 1178 4134 
L 603 4134 
L 603 4863 
z
" transform="scale(0.015625)"/>
       <path id="DejaVuSans-63" d="M 3122 3366 
L 3122 2828 
Q 2878 2963 2633 3030 
Q 2388 3097 2138 3097 
Q 1578 3097 1268 2742 
Q 959 2388 959 1747 
Q 959 1106 1268 751 
Q 1578 397 2138 397 
Q 2388 397 2633 464 
Q 2878 531 3122 666 
L 3122 134 
Q 2881 22 2623 -34 
Q 2366 -91 2075 -91 
Q 1284 -91 818 406 
Q 353 903 353 1747 
Q 353 2603 823 3093 
Q 1294 3584 2113 3584 
Q 2378 3584 2631 3529 
Q 2884 3475 3122 3366 
z
" transform="scale(0.015625)"/>
       <path id="DejaVuSans-6b" d="M 581 4863 
L 1159 4863 
L 1159 1991 
L 2875 3500 
L 3609 3500 
L 1753 1863 
L 3688 0 
L 2938 0 
L 1159 1709 
L 1159 0 
L 581 0 
L 581 4863 
z
" transform="scale(0.015625)"/>
       <path id="DejaVuSans-70" d="M 1159 525 
L 1159 -1331 
L 581 -1331 
L 581 3500 
L 1159 3500 
L 1159 2969 
Q 1341 3281 1617 3432 
Q 1894 3584 2278 3584 
Q 2916 3584 3314 3078 
Q 3713 2572 3713 1747 
Q 3713 922 3314 415 
Q 2916 -91 2278 -91 
Q 1894 -91 1617 61 
Q 1341 213 1159 525 
z
M 3116 1747 
Q 3116 2381 2855 2742 
Q 2594 3103 2138 3103 
Q 1681 3103 1420 2742 
Q 1159 2381 1159 1747 
Q 1159 1113 1420 752 
Q 1681 391 2138 391 
Q 2594 391 2855 752 
Q 3116 1113 3116 1747 
z
" transform="scale(0.015625)"/>
       <path id="DejaVuSans-73" d="M 2834 3397 
L 2834 2853 
Q 2591 2978 2328 3040 
Q 2066 3103 1784 3103 
Q 1356 3103 1142 2972 
Q 928 2841 928 2578 
Q 928 2378 1081 2264 
Q 1234 2150 1697 2047 
L 1894 2003 
Q 2506 1872 2764 1633 
Q 3022 1394 3022 966 
Q 3022 478 2636 193 
Q 2250 -91 1575 -91 
Q 1294 -91 989 -36 
Q 684 19 347 128 
L 347 722 
Q 666 556 975 473 
Q 1284 391 1588 391 
Q 1994 391 2212 530 
Q 2431 669 2431 922 
Q 2431 1156 2273 1281 
Q 2116 1406 1581 1522 
L 1381 1569 
Q 847 1681 609 1914 
Q 372 2147 372 2553 
Q 372 3047 722 3315 
Q 1072 3584 1716 3584 
Q 2034 3584 2315 3537 
Q 2597 3491 2834 3397 
z
" transform="scale(0.015625)"/>
       <path id="DejaVuSans-25" d="M 4653 2053 
Q 4381 2053 4226 1822 
Q 4072 1591 4072 1178 
Q 4072 772 4226 539 
Q 4381 306 4653 306 
Q 4919 306 5073 539 
Q 5228 772 5228 1178 
Q 5228 1588 5073 1820 
Q 4919 2053 4653 2053 
z
M 4653 2450 
Q 5147 2450 5437 2106 
Q 5728 1763 5728 1178 
Q 5728 594 5436 251 
Q 5144 -91 4653 -91 
Q 4153 -91 3862 251 
Q 3572 594 3572 1178 
Q 3572 1766 3864 2108 
Q 4156 2450 4653 2450 
z
M 1428 4353 
Q 1159 4353 1004 4120 
Q 850 3888 850 3481 
Q 850 3069 1003 2837 
Q 1156 2606 1428 2606 
Q 1700 2606 1854 2837 
Q 2009 3069 2009 3481 
Q 2009 3884 1853 4118 
Q 1697 4353 1428 4353 
z
M 4250 4750 
L 4750 4750 
L 1831 -91 
L 1331 -91 
L 4250 4750 
z
M 1428 4750 
Q 1922 4750 2215 4408 
Q 2509 4066 2509 3481 
Q 2509 2891 2217 2550 
Q 1925 2209 1428 2209 
Q 931 2209 642 2551 
Q 353 2894 353 3481 
Q 353 4063 643 4406 
Q 934 4750 1428 4750 
z
" transform="scale(0.015625)"/>
       <path id="DejaVuSans-66" d="M 2375 4863 
L 2375 4384 
L 1825 4384 
Q 1516 4384 1395 4259 
Q 1275 4134 1275 3809 
L 1275 3500 
L 2222 3500 
L 2222 3053 
L 1275 3053 
L 1275 0 
L 697 0 
L 697 3053 
L 147 3053 
L 147 3500 
L 697 3500 
L 697 3744 
Q 697 4328 969 4595 
Q 1241 4863 1831 4863 
L 2375 4863 
z
" transform="scale(0.015625)"/>
       <path id="DejaVuSans-78" d="M 3513 3500 
L 2247 1797 
L 3578 0 
L 2900 0 
L 1881 1375 
L 863 0 
L 184 0 
L 1544 1831 
L 300 3500 
L 978 3500 
L 1906 2253 
L 2834 3500 
L 3513 3500 
z
" transform="scale(0.015625)"/>
       <path id="DejaVuSans-76" d="M 191 3500 
L 800 3500 
L 1894 563 
L 2988 3500 
L 3597 3500 
L 2284 0 
L 1503 0 
L 191 3500 
z
" transform="scale(0.015625)"/>
       <path id="DejaVuSans-6c" d="M 603 4863 
L 1178 4863 
L 1178 0 
L 603 0 
L 603 4863 
z
" transform="scale(0.015625)"/>
      </defs>
      <use xlink:href="#DejaVuSans-54"/>
      <use xlink:href="#DejaVuSans-69" transform="translate(57.958984 0)"/>
      <use xlink:href="#DejaVuSans-63" transform="translate(85.742188 0)"/>
      <use xlink:href="#DejaVuSans-6b" transform="translate(140.722656 0)"/>
      <use xlink:href="#DejaVuSans-65" transform="translate(195.007812 0)"/>
      <use xlink:href="#DejaVuSans-74" transform="translate(256.53125 0)"/>
      <use xlink:href="#DejaVuSans-20" transform="translate(295.740234 0)"/>
      <use xlink:href="#DejaVuSans-70" transform="translate(327.527344 0)"/>
      <use xlink:href="#DejaVuSans-72" transform="translate(391.003906 0)"/>
      <use xlink:href="#DejaVuSans-69" transform="translate(432.117188 0)"/>
      <use xlink:href="#DejaVuSans-63" transform="translate(459.900391 0)"/>
      <use xlink:href="#DejaVuSans-65" transform="translate(514.880859 0)"/>
      <use xlink:href="#DejaVuSans-20" transform="translate(576.404297 0)"/>
      <use xlink:href="#DejaVuSans-61" transform="translate(608.191406 0)"/>
      <use xlink:href="#DejaVuSans-73" transform="translate(669.470703 0)"/>
      <use xlink:href="#DejaVuSans-20" transform="translate(721.570312 0)"/>
      <use xlink:href="#DejaVuSans-25" transform="translate(753.357422 0)"/>
      <use xlink:href="#DejaVuSans-20" transform="translate(848.376953 0)"/>
      <use xlink:href="#DejaVuSans-6f" transform="translate(880.164062 0)"/>
      <use xlink:href="#DejaVuSans-66" transform="translate(941.345703 0)"/>
      <use xlink:href="#DejaVuSans-20" transform="translate(976.550781 0)"/>
      <use xlink:href="#DejaVuSans-65" transform="translate(1008.337891 0)"/>
      <use xlink:href="#DejaVuSans-78" transform="translate(1068.111328 0)"/>
      <use xlink:href="#DejaVuSans-70" transform="translate(1127.291016 0)"/>
      <use xlink:href="#DejaVuSans-65" transform="translate(1190.767578 0)"/>
      <use xlink:href="#DejaVuSans-63" transform="translate(1252.291016 0)"/>
      <use xlink:href="#DejaVuSans-74" transform="translate(1307.271484 0)"/>
      <use xlink:href="#DejaVuSans-65" transform="translate(1346.480469 0)"/>
      <use xlink:href="#DejaVuSans-64" transform="translate(1408.003906 0)"/>
      <use xlink:href="#DejaVuSans-20" transform="translate(1471.480469 0)"/>
      <use xlink:href="#DejaVuSans-76" transform="translate(1503.267578 0)"/>
      <use xlink:href="#DejaVuSans-61" transform="translate(1562.447266 0)"/>
      <use xlink:href="#DejaVuSans-6c" transform="translate(1623.726562 0)"/>
      <use xlink:href="#DejaVuSans-75" transform="translate(1651.509766 0)"/>
      <use xlink:href="#DejaVuSans-65" transform="translate(1714.888672 0)"/>
     </g>
    </g>
   </g>
   <g id="LineCollection_1">
    <path d="M 97.12137 50.485486 
L 130.181723 50.485486 
" clip-path="url(#p8c9c852c70)" style="fill: none; stroke: #333333; stroke-width: 2"/>
    <path d="M 229.362784 113.391557 
L 262.423138 113.391557 
" clip-path="url(#p8c9c852c70)" style="fill: none; stroke: #333333; stroke-width: 2"/>
    <path d="M 361.604198 214.678 
L 394.664552 214.678 
" clip-path="url(#p8c9c852c70)" style="fill: none; stroke: #333333; stroke-width: 2"/>
    <path d="M 493.845612 288.559455 
L 526.905966 288.559455 
" clip-path="url(#p8c9c852c70)" style="fill: none; stroke: #333333; stroke-width: 2"/>
    <path d="M 626.087027 321.216874 
L 659.14738 321.216874 
" clip-path="url(#p8c9c852c70)" style="fill: none; stroke: #333333; stroke-width: 2"/>
   </g>
   <g id="LineCollection_2">
    <path d="M 97.12137 43.561645 
L 130.181723 43.561645 
" clip-path="url(#p8c9c852c70)" style="fill: none; stroke: #c62828; stroke-width: 2"/>
    <path d="M 229.362784 105.501805 
L 262.423138 105.501805 
" clip-path="url(#p8c9c852c70)" style="fill: none; stroke: #c62828; stroke-width: 2"/>
    <path d="M 361.604198 220.616532 
L 394.664552 220.616532 
" clip-path="url(#p8c9c852c70)" style="fill: none; stroke: #c62828; stroke-width: 2"/>
    <path d="M 493.845612 294.554229 
L 526.905966 294.554229 
" clip-path="url(#p8c9c852c70)" style="fill: none; stroke: #c62828; stroke-width: 2"/>
    <path d="M 626.087027 323.877672 
L 659.14738 323.877672 
" clip-path="url(#p8c9c852c70)" style="fill: none; stroke: #c62828; stroke-width: 2"/>
   </g>
   <g id="line2d_18">
    <path d="M 50.836875 31.744 
L 705.431875 31.744 
" clip-path="url(#p8c9c852c70)" style="fill: none; stroke-dasharray: 3.7,1.6; stroke-dashoffset: 0; stroke: #808080; stroke-opacity: 0.4"/>
   </g>
   <g id="patch_3">
    <path d="M 50.836875 344.68 
L 50.836875 7.2 
" style="fill: none; stroke: #000000; stroke-width: 0.8; stroke-linejoin: miter; stroke-linecap: square"/>
   </g>
   <g id="patch_4">
    <path d="M 705.431875 344.68 
L 705.431875 7.2 
" style="fill: none; stroke: #000000; stroke-width: 0.8; stroke-linejoin: miter; stroke-linecap: square"/>
   </g>
   <g id="patch_5">
    <path d="M 50.836875 344.68 
L 705.431875 344.68 
" style="fill: none; stroke: #000000; stroke-width: 0.8; stroke-linejoin: miter; stroke-linecap: square"/>
   </g>
   <g id="patch_6">
    <path d="M 50.836875 7.2 
L 705.431875 7.2 
" style="fill: none; stroke: #000000; stroke-width: 0.8; stroke-linejoin: miter; stroke-linecap: square"/>
   </g>
   <g id="text_14">
    <!-- 100% of  -->
    <g style="fill: #808080; opacity: 0.7" transform="translate(60.754981 27.142) scale(0.1 -0.1)">
     <defs>
      <path id="DejaVuSans-1d53c" d="M 941 4353 
L 941 313 
L 1572 313 
L 1572 4353 
L 941 4353 
z
M 628 4666 
L 4203 4666 
L 4203 4353 
L 1884 4353 
L 1884 2666 
L 4106 2666 
L 4106 2353 
L 1884 2353 
L 1884 313 
L 4259 313 
L 4259 0 
L 628 0 
L 628 4666 
z
" transform="scale(0.015625)"/>
     </defs>
     <use xlink:href="#DejaVuSans-31"/>
     <use xlink:href="#DejaVuSans-30" transform="translate(63.623047 0)"/>
     <use xlink:href="#DejaVuSans-30" transform="translate(127.246094 0)"/>
     <use xlink:href="#DejaVuSans-25" transform="translate(190.869141 0)"/>
     <use xlink:href="#DejaVuSans-20" transform="translate(285.888672 0)"/>
     <use xlink:href="#DejaVuSans-6f" transform="translate(317.675781 0)"/>
     <use xlink:href="#DejaVuSans-66" transform="translate(378.857422 0)"/>
     <use xlink:href="#DejaVuSans-20" transform="translate(414.0625 0)"/>
     <use xlink:href="#DejaVuSans-1d53c" transform="translate(445.849609 0)"/>
    </g>
   </g>
   <g id="line2d_19">
    <defs>
     <path id="m72af9a2e1d" d="M -0 7.071068 
L 7.071068 0 
L 0 -7.071068 
L -7.071068 -0 
z
" style="stroke: #ffffff; stroke-width: 1.5; stroke-linejoin: miter"/>
    </defs>
    <g clip-path="url(#p8c9c852c70)">
     <use xlink:href="#m72af9a2e1d" x="113.651547" y="32.203511" style="fill: #ff0000; stroke: #ffffff; stroke-width: 1.5; stroke-linejoin: miter"/>
    </g>
   </g>
   <g id="line2d_20">
    <g clip-path="url(#p8c9c852c70)">
     <use xlink:href="#m72af9a2e1d" x="245.892961" y="36.27799" style="fill: #ff0000; stroke: #ffffff; stroke-width: 1.5; stroke-linejoin: miter"/>
    </g>
   </g>
   <g id="line2d_21">
    <g clip-path="url(#p8c9c852c70)">
     <use xlink:href="#m72af9a2e1d" x="378.134375" y="71.761391" style="fill: #ff0000; stroke: #ffffff; stroke-width: 1.5; stroke-linejoin: miter"/>
    </g>
   </g>
   <g id="line2d_22">
    <g clip-path="url(#p8c9c852c70)">
     <use xlink:href="#m72af9a2e1d" x="510.375789" y="215.824" style="fill: #ff0000; stroke: #ffffff; stroke-width: 1.5; stroke-linejoin: miter"/>
    </g>
   </g>
   <g id="line2d_23">
    <g clip-path="url(#p8c9c852c70)">
     <use xlink:href="#m72af9a2e1d" x="642.617203" y="319.369" style="fill: #ff0000; stroke: #ffffff; stroke-width: 1.5; stroke-linejoin: miter"/>
    </g>
   </g>
   <g id="legend_1">
    <g id="patch_7">
     <path d="M 593.852344 64.437813 
L 697.731875 64.437813 
Q 699.931875 64.437813 699.931875 62.237813 
L 699.931875 14.9 
Q 699.931875 12.7 697.731875 12.7 
L 593.852344 12.7 
Q 591.652344 12.7 591.652344 14.9 
L 591.652344 62.237813 
Q 591.652344 64.437813 593.852344 64.437813 
z
" style="fill: #ffffff; opacity: 0.8; stroke: #cccccc; stroke-linejoin: miter"/>
    </g>
    <g id="line2d_24">
     <path d="M 596.052344 21.608281 
L 607.052344 21.608281 
L 618.052344 21.608281 
" style="fill: none; stroke: #333333; stroke-width: 2; stroke-linecap: square"/>
    </g>
    <g id="text_15">
     <!-- Mean -->
     <g transform="translate(626.852344 25.458281) scale(0.11 -0.11)">
      <use xlink:href="#DejaVuSans-4d"/>
      <use xlink:href="#DejaVuSans-65" transform="translate(86.279297 0)"/>
      <use xlink:href="#DejaVuSans-61" transform="translate(147.802734 0)"/>
      <use xlink:href="#DejaVuSans-6e" transform="translate(209.082031 0)"/>
     </g>
    </g>
    <g id="line2d_25">
     <path d="M 596.052344 37.754219 
L 607.052344 37.754219 
L 618.052344 37.754219 
" style="fill: none; stroke: #c62828; stroke-width: 2; stroke-linecap: square"/>
    </g>
    <g id="text_16">
     <!-- Median -->
     <g transform="translate(626.852344 41.604219) scale(0.11 -0.11)">
      <use xlink:href="#DejaVuSans-4d"/>
      <use xlink:href="#DejaVuSans-65" transform="translate(86.279297 0)"/>
      <use xlink:href="#DejaVuSans-64" transform="translate(147.802734 0)"/>
      <use xlink:href="#DejaVuSans-69" transform="translate(211.279297 0)"/>
      <use xlink:href="#DejaVuSans-61" transform="translate(239.0625 0)"/>
      <use xlink:href="#DejaVuSans-6e" transform="translate(300.341797 0)"/>
     </g>
    </g>
    <g id="line2d_26">
     <defs>
      <path id="mba8a7789d9" d="M -0 5.656854 
L 5.656854 0 
L 0 -5.656854 
L -5.656854 -0 
z
" style="stroke: #ffffff; stroke-width: 1.5; stroke-linejoin: miter"/>
     </defs>
     <g>
      <use xlink:href="#mba8a7789d9" x="607.052344" y="53.900156" style="fill: #ff0000; stroke: #ffffff; stroke-width: 1.5; stroke-linejoin: miter"/>
     </g>
    </g>
    <g id="text_17">
     <!-- Market price -->
     <g transform="translate(626.852344 57.750156) scale(0.11 -0.11)">
      <use xlink:href="#DejaVuSans-4d"/>
      <use xlink:href="#DejaVuSans-61" transform="translate(86.279297 0)"/>
      <use xlink:href="#DejaVuSans-72" transform="translate(147.558594 0)"/>
      <use xlink:href="#DejaVuSans-6b" transform="translate(188.671875 0)"/>
      <use xlink:href="#DejaVuSans-65" transform="translate(242.957031 0)"/>
      <use xlink:href="#DejaVuSans-74" transform="translate(304.480469 0)"/>
      <use xlink:href="#DejaVuSans-20" transform="translate(343.689453 0)"/>
      <use xlink:href="#DejaVuSans-70" transform="translate(375.476562 0)"/>
      <use xlink:href="#DejaVuSans-72" transform="translate(438.953125 0)"/>
      <use xlink:href="#DejaVuSans-69" transform="translate(480.066406 0)"/>
      <use xlink:href="#DejaVuSans-63" transform="translate(507.849609 0)"/>
      <use xlink:href="#DejaVuSans-65" transform="translate(562.830078 0)"/>
     </g>
    </g>
   </g>
  </g>
 </g>
 <defs>
  <clipPath id="p8c9c852c70">
   <rect x="50.836875" y="7.2" width="654.595" height="337.48"/>
  </clipPath>
 </defs>
</svg>
